<?xml version="1.0" standalone="no"?>
<!DOCTYPE svg PUBLIC "-//W3C//DTD SVG 20010904//EN"
 "http://www.w3.org/TR/2001/REC-SVG-20010904/DTD/svg10.dtd">
<svg version="1.0" xmlns="http://www.w3.org/2000/svg"
 width="512.000000pt" height="512.000000pt" viewBox="0 0 512.000000 512.000000"
 preserveAspectRatio="xMidYMid meet">
<metadata>
Created by potrace 1.15, written by Peter Selinger 2001-2017
</metadata>
<g transform="translate(0.000000,512.000000) scale(0.100000,-0.100000)"
fill="#fc6203" stroke="none">
<path d="M0 2560 l0 -2560 2560 0 2560 0 0 2560 0 2560 -2560 0 -2560 0 0
-2560z m2757 2445 c306 -50 562 -209 728 -453 43 -64 53 -73 75 -69 14 3 77
18 140 33 103 25 133 28 285 28 198 0 291 -18 430 -83 283 -133 474 -365 599
-729 78 -228 90 -329 61 -509 -25 -153 -98 -330 -192 -462 -68 -95 -223 -246
-333 -324 -52 -37 -164 -102 -247 -143 l-153 -76 6 -77 c17 -232 91 -430 216
-573 21 -25 206 -181 251 -213 19 -13 17 -18 -58 -154 -287 -520 -809 -865
-1475 -977 -52 -8 -188 -18 -301 -21 -278 -8 -484 12 -769 73 -154 33 -149 31
-155 67 -3 18 -16 105 -30 195 -40 263 -127 623 -194 803 l-21 55 -108 -24
c-95 -22 -132 -25 -332 -26 -213 -1 -230 0 -325 25 -290 76 -490 216 -639 447
-51 78 -71 122 -121 259 -71 194 -97 395 -75 569 64 508 422 860 1003 988 27
6 27 7 27 85 0 149 42 330 111 479 152 330 463 587 881 731 110 37 269 76 348
84 92 10 284 5 367 -8z"/>
<path d="M2433 4730 c-272 -30 -566 -157 -777 -334 -118 -100 -240 -293 -287
-456 -35 -124 -37 -435 -3 -523 4 -12 -3 -17 -28 -21 -359 -51 -514 -100 -686
-214 -329 -217 -440 -625 -281 -1038 96 -251 240 -395 474 -473 212 -70 443
-67 735 11 63 16 124 32 136 35 47 11 152 -163 219 -362 47 -141 127 -467 162
-662 l27 -152 65 -11 c449 -79 857 -60 1192 55 145 50 366 162 479 242 117 84
310 274 372 368 l46 69 -70 69 c-165 164 -265 359 -314 614 -19 95 -25 353
-11 435 7 43 11 48 45 59 20 6 84 32 142 56 436 188 689 470 731 817 11 82 10
100 -9 178 -30 124 -85 268 -145 378 -74 135 -200 262 -318 319 -118 56 -199
74 -344 74 -172 -1 -363 -46 -514 -123 -65 -33 -81 -36 -81 -19 0 24 -92 204
-134 263 -77 108 -193 209 -298 260 -153 75 -348 106 -525 86z m1223 -1032
c98 -195 144 -359 144 -515 0 -127 -12 -189 -56 -279 -66 -134 -161 -196 -226
-144 -44 34 -38 72 25 156 78 103 107 211 107 402 0 119 -14 258 -39 389 -10
51 -14 90 -9 87 5 -3 29 -46 54 -96z m-1080 -438 c20 -113 64 -202 116 -240
23 -17 49 -30 60 -30 13 0 18 -7 18 -31 0 -17 -5 -39 -10 -50 -15 -26 -73 -25
-130 5 -87 44 -117 147 -106 355 3 69 10 142 13 161 7 33 8 32 15 -25 5 -33
15 -98 24 -145z m-1272 -298 c80 -159 187 -314 285 -413 93 -93 153 -130 243
-148 99 -21 128 -63 93 -131 -39 -76 -214 -45 -350 62 -141 109 -259 331 -308
578 -23 111 -29 160 -23 160 3 0 30 -49 60 -108z m2266 -415 c80 -16 83 -18
105 -62 15 -33 15 -38 1 -60 -29 -44 -95 -55 -401 -65 -310 -10 -391 -22 -577
-86 -181 -62 -516 -237 -739 -388 -29 -20 -57 -36 -62 -36 -17 0 60 97 155
196 285 296 608 458 1033 518 62 9 422 -4 485 -17z m25 -1158 c119 -15 263
-52 339 -87 l61 -29 -196 5 c-207 5 -323 -4 -494 -39 -332 -68 -720 -258 -989
-486 -133 -113 -135 -114 -81 -44 181 232 423 440 643 550 223 112 481 159
717 130z"/>
</g>
</svg>
